<mxfile host="Electron" agent="Mozilla/5.0 (Windows NT 10.0; Win64; x64) AppleWebKit/537.36 (KHTML, like Gecko) draw.io/25.0.2 Chrome/128.0.6613.186 Electron/32.2.5 Safari/537.36" version="25.0.2">
  <diagram name="Страница — 1" id="aUmGsvegycM4aqSSq3qO">
    <mxGraphModel dx="1727" dy="1183" grid="1" gridSize="10" guides="1" tooltips="1" connect="1" arrows="1" fold="1" page="1" pageScale="1" pageWidth="827" pageHeight="1169" math="0" shadow="0">
      <root>
        <mxCell id="0" />
        <mxCell id="1" parent="0" />
        <mxCell id="JKHnoWt7tm39T_Bps9TW-3" style="edgeStyle=orthogonalEdgeStyle;rounded=0;orthogonalLoop=1;jettySize=auto;html=1;exitX=0.5;exitY=1;exitDx=0;exitDy=0;" edge="1" parent="1" source="JKHnoWt7tm39T_Bps9TW-1" target="JKHnoWt7tm39T_Bps9TW-2">
          <mxGeometry relative="1" as="geometry" />
        </mxCell>
        <mxCell id="JKHnoWt7tm39T_Bps9TW-1" value="начало" style="ellipse;whiteSpace=wrap;html=1;" vertex="1" parent="1">
          <mxGeometry x="360" y="10" width="80" height="30" as="geometry" />
        </mxCell>
        <mxCell id="JKHnoWt7tm39T_Bps9TW-8" style="edgeStyle=orthogonalEdgeStyle;rounded=0;orthogonalLoop=1;jettySize=auto;html=1;exitX=0.5;exitY=1;exitDx=0;exitDy=0;entryX=0.5;entryY=0;entryDx=0;entryDy=0;" edge="1" parent="1" source="JKHnoWt7tm39T_Bps9TW-2" target="JKHnoWt7tm39T_Bps9TW-7">
          <mxGeometry relative="1" as="geometry" />
        </mxCell>
        <mxCell id="JKHnoWt7tm39T_Bps9TW-2" value="int main()" style="shape=process;whiteSpace=wrap;html=1;backgroundOutline=1;" vertex="1" parent="1">
          <mxGeometry x="340" y="60" width="120" height="40" as="geometry" />
        </mxCell>
        <mxCell id="JKHnoWt7tm39T_Bps9TW-4" value="" style="endArrow=none;html=1;rounded=0;" edge="1" parent="1">
          <mxGeometry width="50" height="50" relative="1" as="geometry">
            <mxPoint x="520" y="90" as="sourcePoint" />
            <mxPoint x="520" y="20" as="targetPoint" />
          </mxGeometry>
        </mxCell>
        <mxCell id="JKHnoWt7tm39T_Bps9TW-5" value="" style="endArrow=none;html=1;rounded=0;" edge="1" parent="1">
          <mxGeometry width="50" height="50" relative="1" as="geometry">
            <mxPoint x="590" y="20" as="sourcePoint" />
            <mxPoint x="520" y="20" as="targetPoint" />
          </mxGeometry>
        </mxCell>
        <mxCell id="JKHnoWt7tm39T_Bps9TW-6" value="&lt;div&gt;#include &amp;lt;iostream&amp;gt;&lt;/div&gt;&lt;div&gt;#include &amp;lt;ctime&amp;gt;&lt;/div&gt;" style="text;html=1;align=center;verticalAlign=middle;resizable=0;points=[];autosize=1;strokeColor=none;fillColor=none;" vertex="1" parent="1">
          <mxGeometry x="520" y="20" width="130" height="40" as="geometry" />
        </mxCell>
        <mxCell id="JKHnoWt7tm39T_Bps9TW-16" style="edgeStyle=orthogonalEdgeStyle;rounded=0;orthogonalLoop=1;jettySize=auto;html=1;exitX=0.5;exitY=1;exitDx=0;exitDy=0;entryX=0.5;entryY=0;entryDx=0;entryDy=0;" edge="1" parent="1" source="JKHnoWt7tm39T_Bps9TW-7" target="JKHnoWt7tm39T_Bps9TW-9">
          <mxGeometry relative="1" as="geometry" />
        </mxCell>
        <mxCell id="JKHnoWt7tm39T_Bps9TW-7" value="using namespace std;" style="whiteSpace=wrap;html=1;" vertex="1" parent="1">
          <mxGeometry x="340" y="120" width="120" height="30" as="geometry" />
        </mxCell>
        <mxCell id="JKHnoWt7tm39T_Bps9TW-15" style="edgeStyle=orthogonalEdgeStyle;rounded=0;orthogonalLoop=1;jettySize=auto;html=1;exitX=0.5;exitY=1;exitDx=0;exitDy=0;entryX=0.5;entryY=0;entryDx=0;entryDy=0;" edge="1" parent="1" source="JKHnoWt7tm39T_Bps9TW-9" target="JKHnoWt7tm39T_Bps9TW-11">
          <mxGeometry relative="1" as="geometry" />
        </mxCell>
        <mxCell id="JKHnoWt7tm39T_Bps9TW-9" value="setlocale(LC_ALL, &quot;RU&quot;);" style="whiteSpace=wrap;html=1;" vertex="1" parent="1">
          <mxGeometry x="340" y="170" width="120" height="30" as="geometry" />
        </mxCell>
        <mxCell id="JKHnoWt7tm39T_Bps9TW-14" style="edgeStyle=orthogonalEdgeStyle;rounded=0;orthogonalLoop=1;jettySize=auto;html=1;exitX=0.5;exitY=1;exitDx=0;exitDy=0;entryX=0.5;entryY=0;entryDx=0;entryDy=0;" edge="1" parent="1" source="JKHnoWt7tm39T_Bps9TW-11" target="JKHnoWt7tm39T_Bps9TW-12">
          <mxGeometry relative="1" as="geometry" />
        </mxCell>
        <mxCell id="JKHnoWt7tm39T_Bps9TW-11" value="srand(time(NULL));" style="whiteSpace=wrap;html=1;" vertex="1" parent="1">
          <mxGeometry x="340" y="220" width="120" height="30" as="geometry" />
        </mxCell>
        <mxCell id="JKHnoWt7tm39T_Bps9TW-20" style="edgeStyle=orthogonalEdgeStyle;rounded=0;orthogonalLoop=1;jettySize=auto;html=1;exitX=0.5;exitY=1;exitDx=0;exitDy=0;" edge="1" parent="1" source="JKHnoWt7tm39T_Bps9TW-12" target="JKHnoWt7tm39T_Bps9TW-17">
          <mxGeometry relative="1" as="geometry" />
        </mxCell>
        <mxCell id="JKHnoWt7tm39T_Bps9TW-12" value="int ROWS, COLS;" style="whiteSpace=wrap;html=1;" vertex="1" parent="1">
          <mxGeometry x="340" y="270" width="120" height="30" as="geometry" />
        </mxCell>
        <mxCell id="JKHnoWt7tm39T_Bps9TW-19" style="edgeStyle=orthogonalEdgeStyle;rounded=0;orthogonalLoop=1;jettySize=auto;html=1;exitX=0.5;exitY=1;exitDx=0;exitDy=0;entryX=0.5;entryY=0;entryDx=0;entryDy=0;" edge="1" parent="1" source="JKHnoWt7tm39T_Bps9TW-17" target="JKHnoWt7tm39T_Bps9TW-18">
          <mxGeometry relative="1" as="geometry" />
        </mxCell>
        <mxCell id="JKHnoWt7tm39T_Bps9TW-17" value="cout &amp;lt;&amp;lt; &quot;Введите количество строк: &quot;;" style="shape=parallelogram;perimeter=parallelogramPerimeter;whiteSpace=wrap;html=1;fixedSize=1;" vertex="1" parent="1">
          <mxGeometry x="307.5" y="320" width="185" height="40" as="geometry" />
        </mxCell>
        <mxCell id="JKHnoWt7tm39T_Bps9TW-23" style="edgeStyle=orthogonalEdgeStyle;rounded=0;orthogonalLoop=1;jettySize=auto;html=1;exitX=0.5;exitY=1;exitDx=0;exitDy=0;entryX=0.5;entryY=0;entryDx=0;entryDy=0;" edge="1" parent="1" source="JKHnoWt7tm39T_Bps9TW-18" target="JKHnoWt7tm39T_Bps9TW-21">
          <mxGeometry relative="1" as="geometry" />
        </mxCell>
        <mxCell id="JKHnoWt7tm39T_Bps9TW-18" value="cin &amp;gt;&amp;gt; ROWS;" style="shape=parallelogram;perimeter=parallelogramPerimeter;whiteSpace=wrap;html=1;fixedSize=1;" vertex="1" parent="1">
          <mxGeometry x="340" y="380" width="120" height="20" as="geometry" />
        </mxCell>
        <mxCell id="JKHnoWt7tm39T_Bps9TW-25" style="edgeStyle=orthogonalEdgeStyle;rounded=0;orthogonalLoop=1;jettySize=auto;html=1;exitX=0.5;exitY=1;exitDx=0;exitDy=0;entryX=0.5;entryY=0;entryDx=0;entryDy=0;" edge="1" parent="1" source="JKHnoWt7tm39T_Bps9TW-21" target="JKHnoWt7tm39T_Bps9TW-24">
          <mxGeometry relative="1" as="geometry" />
        </mxCell>
        <mxCell id="JKHnoWt7tm39T_Bps9TW-21" value="cout &amp;lt;&amp;lt; &quot;Введите количество столбцов: &quot;;" style="shape=parallelogram;perimeter=parallelogramPerimeter;whiteSpace=wrap;html=1;fixedSize=1;" vertex="1" parent="1">
          <mxGeometry x="300" y="420" width="200" height="60" as="geometry" />
        </mxCell>
        <mxCell id="JKHnoWt7tm39T_Bps9TW-28" style="edgeStyle=orthogonalEdgeStyle;rounded=0;orthogonalLoop=1;jettySize=auto;html=1;exitX=0.5;exitY=1;exitDx=0;exitDy=0;entryX=0.5;entryY=0;entryDx=0;entryDy=0;" edge="1" parent="1" source="JKHnoWt7tm39T_Bps9TW-24" target="JKHnoWt7tm39T_Bps9TW-26">
          <mxGeometry relative="1" as="geometry" />
        </mxCell>
        <mxCell id="JKHnoWt7tm39T_Bps9TW-24" value="cin &amp;gt;&amp;gt; COLS;" style="shape=parallelogram;perimeter=parallelogramPerimeter;whiteSpace=wrap;html=1;fixedSize=1;" vertex="1" parent="1">
          <mxGeometry x="340" y="500" width="120" height="20" as="geometry" />
        </mxCell>
        <mxCell id="JKHnoWt7tm39T_Bps9TW-30" style="edgeStyle=orthogonalEdgeStyle;rounded=0;orthogonalLoop=1;jettySize=auto;html=1;exitX=0.5;exitY=1;exitDx=0;exitDy=0;entryX=0.5;entryY=0;entryDx=0;entryDy=0;" edge="1" parent="1" source="JKHnoWt7tm39T_Bps9TW-26" target="JKHnoWt7tm39T_Bps9TW-29">
          <mxGeometry relative="1" as="geometry" />
        </mxCell>
        <mxCell id="JKHnoWt7tm39T_Bps9TW-26" value="int** arr = new int* [ROWS];" style="whiteSpace=wrap;html=1;" vertex="1" parent="1">
          <mxGeometry x="340" y="540" width="120" height="30" as="geometry" />
        </mxCell>
        <mxCell id="JKHnoWt7tm39T_Bps9TW-32" style="edgeStyle=orthogonalEdgeStyle;rounded=0;orthogonalLoop=1;jettySize=auto;html=1;exitX=0.5;exitY=1;exitDx=0;exitDy=0;entryX=0.5;entryY=0;entryDx=0;entryDy=0;" edge="1" parent="1" source="JKHnoWt7tm39T_Bps9TW-29" target="JKHnoWt7tm39T_Bps9TW-31">
          <mxGeometry relative="1" as="geometry" />
        </mxCell>
        <mxCell id="JKHnoWt7tm39T_Bps9TW-34" style="edgeStyle=orthogonalEdgeStyle;rounded=0;orthogonalLoop=1;jettySize=auto;html=1;exitX=1;exitY=0.5;exitDx=0;exitDy=0;" edge="1" parent="1" source="JKHnoWt7tm39T_Bps9TW-29">
          <mxGeometry relative="1" as="geometry">
            <mxPoint x="600" y="640" as="targetPoint" />
          </mxGeometry>
        </mxCell>
        <mxCell id="JKHnoWt7tm39T_Bps9TW-29" value="for (int i = 0; i &amp;lt; ROWS; ++i)" style="shape=hexagon;perimeter=hexagonPerimeter2;whiteSpace=wrap;html=1;fixedSize=1;" vertex="1" parent="1">
          <mxGeometry x="340" y="590" width="120" height="40" as="geometry" />
        </mxCell>
        <mxCell id="JKHnoWt7tm39T_Bps9TW-33" style="edgeStyle=orthogonalEdgeStyle;rounded=0;orthogonalLoop=1;jettySize=auto;html=1;exitX=0.5;exitY=1;exitDx=0;exitDy=0;entryX=0;entryY=0.5;entryDx=0;entryDy=0;" edge="1" parent="1" source="JKHnoWt7tm39T_Bps9TW-31" target="JKHnoWt7tm39T_Bps9TW-29">
          <mxGeometry relative="1" as="geometry" />
        </mxCell>
        <mxCell id="JKHnoWt7tm39T_Bps9TW-31" value="arr[i] = new int[COLS];" style="whiteSpace=wrap;html=1;" vertex="1" parent="1">
          <mxGeometry x="340" y="650" width="120" height="30" as="geometry" />
        </mxCell>
        <mxCell id="JKHnoWt7tm39T_Bps9TW-37" style="edgeStyle=orthogonalEdgeStyle;rounded=0;orthogonalLoop=1;jettySize=auto;html=1;exitX=0.5;exitY=1;exitDx=0;exitDy=0;entryX=0.5;entryY=0;entryDx=0;entryDy=0;" edge="1" parent="1" source="JKHnoWt7tm39T_Bps9TW-35" target="JKHnoWt7tm39T_Bps9TW-36">
          <mxGeometry relative="1" as="geometry" />
        </mxCell>
        <mxCell id="JKHnoWt7tm39T_Bps9TW-35" value="fillMatrix(arr, ROWS, COLS, 9);" style="ellipse;whiteSpace=wrap;html=1;" vertex="1" parent="1">
          <mxGeometry x="540" y="640" width="120" height="60" as="geometry" />
        </mxCell>
        <mxCell id="JKHnoWt7tm39T_Bps9TW-40" style="edgeStyle=orthogonalEdgeStyle;rounded=0;orthogonalLoop=1;jettySize=auto;html=1;exitX=0.5;exitY=1;exitDx=0;exitDy=0;entryX=0.5;entryY=0;entryDx=0;entryDy=0;" edge="1" parent="1" source="JKHnoWt7tm39T_Bps9TW-36" target="JKHnoWt7tm39T_Bps9TW-38">
          <mxGeometry relative="1" as="geometry" />
        </mxCell>
        <mxCell id="JKHnoWt7tm39T_Bps9TW-36" value="cout &amp;lt;&amp;lt; &quot;Сформированный массив:&quot; &amp;lt;&amp;lt; endl;" style="shape=parallelogram;perimeter=parallelogramPerimeter;whiteSpace=wrap;html=1;fixedSize=1;" vertex="1" parent="1">
          <mxGeometry x="515" y="720" width="170" height="60" as="geometry" />
        </mxCell>
        <mxCell id="JKHnoWt7tm39T_Bps9TW-41" style="edgeStyle=orthogonalEdgeStyle;rounded=0;orthogonalLoop=1;jettySize=auto;html=1;exitX=0.5;exitY=1;exitDx=0;exitDy=0;" edge="1" parent="1" source="JKHnoWt7tm39T_Bps9TW-38" target="JKHnoWt7tm39T_Bps9TW-39">
          <mxGeometry relative="1" as="geometry" />
        </mxCell>
        <mxCell id="JKHnoWt7tm39T_Bps9TW-38" value="printMatrix(arr, ROWS, COLS);" style="ellipse;whiteSpace=wrap;html=1;" vertex="1" parent="1">
          <mxGeometry x="535" y="800" width="130" height="40" as="geometry" />
        </mxCell>
        <mxCell id="JKHnoWt7tm39T_Bps9TW-43" style="edgeStyle=orthogonalEdgeStyle;rounded=0;orthogonalLoop=1;jettySize=auto;html=1;exitX=0.5;exitY=1;exitDx=0;exitDy=0;" edge="1" parent="1" source="JKHnoWt7tm39T_Bps9TW-39" target="JKHnoWt7tm39T_Bps9TW-42">
          <mxGeometry relative="1" as="geometry" />
        </mxCell>
        <mxCell id="JKHnoWt7tm39T_Bps9TW-39" value="findSaddlePoints(arr, ROWS, COLS);" style="ellipse;whiteSpace=wrap;html=1;" vertex="1" parent="1">
          <mxGeometry x="510" y="860" width="180" height="80" as="geometry" />
        </mxCell>
        <mxCell id="JKHnoWt7tm39T_Bps9TW-45" style="edgeStyle=orthogonalEdgeStyle;rounded=0;orthogonalLoop=1;jettySize=auto;html=1;exitX=0.5;exitY=1;exitDx=0;exitDy=0;entryX=0.5;entryY=0;entryDx=0;entryDy=0;" edge="1" parent="1" source="JKHnoWt7tm39T_Bps9TW-42" target="JKHnoWt7tm39T_Bps9TW-44">
          <mxGeometry relative="1" as="geometry" />
        </mxCell>
        <mxCell id="JKHnoWt7tm39T_Bps9TW-47" style="edgeStyle=orthogonalEdgeStyle;rounded=0;orthogonalLoop=1;jettySize=auto;html=1;exitX=1;exitY=0.5;exitDx=0;exitDy=0;" edge="1" parent="1" source="JKHnoWt7tm39T_Bps9TW-42">
          <mxGeometry relative="1" as="geometry">
            <mxPoint x="760" y="1020" as="targetPoint" />
          </mxGeometry>
        </mxCell>
        <mxCell id="JKHnoWt7tm39T_Bps9TW-42" value="for (int i = 0; i &amp;lt; ROWS; ++i)" style="shape=hexagon;perimeter=hexagonPerimeter2;whiteSpace=wrap;html=1;fixedSize=1;" vertex="1" parent="1">
          <mxGeometry x="540" y="960" width="120" height="40" as="geometry" />
        </mxCell>
        <mxCell id="JKHnoWt7tm39T_Bps9TW-46" style="edgeStyle=orthogonalEdgeStyle;rounded=0;orthogonalLoop=1;jettySize=auto;html=1;exitX=0.5;exitY=1;exitDx=0;exitDy=0;entryX=0;entryY=0.5;entryDx=0;entryDy=0;" edge="1" parent="1" source="JKHnoWt7tm39T_Bps9TW-44" target="JKHnoWt7tm39T_Bps9TW-42">
          <mxGeometry relative="1" as="geometry" />
        </mxCell>
        <mxCell id="JKHnoWt7tm39T_Bps9TW-44" value="delete[] arr[i];" style="whiteSpace=wrap;html=1;" vertex="1" parent="1">
          <mxGeometry x="540" y="1020" width="120" height="30" as="geometry" />
        </mxCell>
        <mxCell id="JKHnoWt7tm39T_Bps9TW-50" style="edgeStyle=orthogonalEdgeStyle;rounded=0;orthogonalLoop=1;jettySize=auto;html=1;exitX=0.5;exitY=1;exitDx=0;exitDy=0;entryX=0.5;entryY=0;entryDx=0;entryDy=0;" edge="1" parent="1" source="JKHnoWt7tm39T_Bps9TW-48" target="JKHnoWt7tm39T_Bps9TW-49">
          <mxGeometry relative="1" as="geometry" />
        </mxCell>
        <mxCell id="JKHnoWt7tm39T_Bps9TW-48" value="delete[] arr;" style="whiteSpace=wrap;html=1;" vertex="1" parent="1">
          <mxGeometry x="720" y="1020" width="80" height="30" as="geometry" />
        </mxCell>
        <mxCell id="JKHnoWt7tm39T_Bps9TW-49" value="return 0;" style="ellipse;whiteSpace=wrap;html=1;" vertex="1" parent="1">
          <mxGeometry x="720" y="1070" width="80" height="40" as="geometry" />
        </mxCell>
        <mxCell id="JKHnoWt7tm39T_Bps9TW-51" value="{" style="text;html=1;align=center;verticalAlign=middle;resizable=0;points=[];autosize=1;strokeColor=none;fillColor=none;" vertex="1" parent="1">
          <mxGeometry x="370" y="90" width="30" height="30" as="geometry" />
        </mxCell>
        <mxCell id="JKHnoWt7tm39T_Bps9TW-52" value="}" style="text;html=1;align=center;verticalAlign=middle;resizable=0;points=[];autosize=1;strokeColor=none;fillColor=none;" vertex="1" parent="1">
          <mxGeometry x="745" y="1110" width="30" height="30" as="geometry" />
        </mxCell>
        <mxCell id="JKHnoWt7tm39T_Bps9TW-53" value="{" style="text;html=1;align=center;verticalAlign=middle;resizable=0;points=[];autosize=1;strokeColor=none;fillColor=none;" vertex="1" parent="1">
          <mxGeometry x="570" y="990" width="30" height="30" as="geometry" />
        </mxCell>
        <mxCell id="JKHnoWt7tm39T_Bps9TW-54" value="}" style="text;html=1;align=center;verticalAlign=middle;resizable=0;points=[];autosize=1;strokeColor=none;fillColor=none;" vertex="1" parent="1">
          <mxGeometry x="600" y="1050" width="30" height="30" as="geometry" />
        </mxCell>
        <mxCell id="JKHnoWt7tm39T_Bps9TW-55" value="{" style="text;html=1;align=center;verticalAlign=middle;resizable=0;points=[];autosize=1;strokeColor=none;fillColor=none;" vertex="1" parent="1">
          <mxGeometry x="355" y="620" width="30" height="30" as="geometry" />
        </mxCell>
        <mxCell id="JKHnoWt7tm39T_Bps9TW-56" value="}" style="text;html=1;align=center;verticalAlign=middle;resizable=0;points=[];autosize=1;strokeColor=none;fillColor=none;" vertex="1" parent="1">
          <mxGeometry x="395" y="678" width="30" height="30" as="geometry" />
        </mxCell>
        <mxCell id="JKHnoWt7tm39T_Bps9TW-57" value="" style="endArrow=none;dashed=1;html=1;dashPattern=1 3;strokeWidth=2;rounded=0;entryX=-0.018;entryY=0.715;entryDx=0;entryDy=0;entryPerimeter=0;" edge="1" parent="1" target="JKHnoWt7tm39T_Bps9TW-6">
          <mxGeometry width="50" height="50" relative="1" as="geometry">
            <mxPoint x="400" y="50" as="sourcePoint" />
            <mxPoint x="500" y="40" as="targetPoint" />
          </mxGeometry>
        </mxCell>
      </root>
    </mxGraphModel>
  </diagram>
</mxfile>
